<svg width="30" height="30" viewBox="0 0 30 30" fill="none" xmlns="http://www.w3.org/2000/svg">
<path d="M14.8333 10.1159C12.1775 10.1159 10.0101 12.2712 10.0101 14.9122C10.0101 17.5533 12.1775 19.7086 14.8333 19.7086C17.4892 19.7086 19.6565 17.5533 19.6565 14.9122C19.6565 12.2712 17.4892 10.1159 14.8333 10.1159ZM29.2993 14.9122C29.2993 12.926 29.3174 10.9579 29.2052 8.97526C29.0931 6.67244 28.5648 4.62868 26.8714 2.94474C25.1744 1.2572 23.1229 0.735463 20.8072 0.623919C18.8098 0.512376 16.8306 0.530367 14.837 0.530367C12.8397 0.530367 10.8604 0.512376 8.86676 0.623919C6.55105 0.735463 4.49585 1.26079 2.80249 2.94474C1.10551 4.63228 0.580854 6.67244 0.468687 8.97526C0.35652 10.9614 0.374611 12.9296 0.374611 14.9122C0.374611 16.8948 0.35652 18.8666 0.468687 20.8492C0.580854 23.152 1.10913 25.1958 2.80249 26.8797C4.49947 28.5673 6.55105 29.089 8.86676 29.2006C10.8641 29.3121 12.8433 29.2941 14.837 29.2941C16.8343 29.2941 18.8135 29.3121 20.8072 29.2006C23.1229 29.089 25.1781 28.5637 26.8714 26.8797C28.5684 25.1922 29.0931 23.152 29.2052 20.8492C29.321 18.8666 29.2993 16.8984 29.2993 14.9122ZM14.8333 22.2921C10.7266 22.2921 7.4122 18.9962 7.4122 14.9122C7.4122 10.8283 10.7266 7.5324 14.8333 7.5324C18.9401 7.5324 22.2545 10.8283 22.2545 14.9122C22.2545 18.9962 18.9401 22.2921 14.8333 22.2921ZM22.5584 8.95367C21.5996 8.95367 20.8252 8.18367 20.8252 7.23015C20.8252 6.27664 21.5996 5.50663 22.5584 5.50663C23.5173 5.50663 24.2916 6.27664 24.2916 7.23015C24.2919 7.45657 24.2472 7.68082 24.1602 7.89005C24.0732 8.09929 23.9456 8.2894 23.7846 8.4495C23.6236 8.6096 23.4324 8.73654 23.222 8.82306C23.0116 8.90957 22.7861 8.95396 22.5584 8.95367Z" fill="white"/>
</svg>
