<svg width="31" height="30" viewBox="0 0 31 30" fill="none" xmlns="http://www.w3.org/2000/svg">
<path d="M30.1545 14.912C30.1545 18.7415 28.572 22.4142 25.755 25.1221C22.9381 27.83 19.1175 29.3513 15.1337 29.3513C11.15 29.3513 7.32936 27.83 4.51241 25.1221C1.69546 22.4142 0.112915 18.7415 0.112915 14.912C0.112915 11.0824 1.69546 7.40974 4.51241 4.70184C7.32936 1.99394 11.15 0.472656 15.1337 0.472656C19.1175 0.472656 22.9381 1.99394 25.755 4.70184C28.572 7.40974 30.1545 11.0824 30.1545 14.912ZM15.6726 11.1325C14.2118 11.7173 11.2903 12.9266 6.91171 14.7604C6.20198 15.0311 5.82833 15.2982 5.79454 15.5581C5.73821 15.9967 6.31088 16.17 7.09008 16.4065L7.41866 16.5057C8.18472 16.7458 9.21741 17.0255 9.75252 17.0364C10.2407 17.0472 10.7833 16.8559 11.3823 16.4588C15.4736 13.8038 17.5859 12.4627 17.7173 12.4338C17.8112 12.4122 17.9426 12.3869 18.029 12.4627C18.1172 12.5367 18.1078 12.6793 18.0985 12.7172C18.0421 12.95 15.7946 14.9571 14.6324 15.9967C14.27 16.3216 14.0128 16.5508 13.9602 16.6032C13.8445 16.7169 13.7268 16.8288 13.6072 16.9389C12.8937 17.5995 12.3605 18.0941 13.6354 18.9027C14.2494 19.2925 14.7413 19.612 15.2314 19.9333C15.7646 20.2834 16.2978 20.6318 16.9888 21.0686C17.1634 21.1769 17.3324 21.2942 17.4958 21.4061C18.1172 21.832 18.6786 22.2147 19.3677 22.1533C19.7695 22.1172 20.1845 21.7562 20.3948 20.6733C20.8923 18.1157 21.8706 12.5764 22.0959 10.2932C22.1096 10.1034 22.1014 9.91272 22.0715 9.72466C22.0538 9.5729 21.9774 9.43309 21.8574 9.33299C21.6866 9.21962 21.4829 9.16089 21.2754 9.16513C20.7121 9.17416 19.8428 9.46475 15.6726 11.1325Z" fill="white"/>
</svg>
