<svg width="31" height="31" viewBox="0 0 31 31" fill="none" xmlns="http://www.w3.org/2000/svg">
<path d="M15.2493 0.597168C7.02344 0.597168 0.353638 7.22985 0.353638 15.4099C0.353638 23.59 7.02344 30.2227 15.2493 30.2227C23.4752 30.2227 30.145 23.59 30.145 15.4099C30.145 7.22985 23.4752 0.597168 15.2493 0.597168ZM22.4079 11.763C22.4178 11.9184 22.4178 12.0804 22.4178 12.2391C22.4178 17.0929 18.7006 22.6841 11.9078 22.6841C9.81305 22.6841 7.8713 22.079 6.23543 21.0375C6.53468 21.0705 6.82062 21.0837 7.12651 21.0837C8.85547 21.0837 10.4448 20.5018 11.7116 19.5165C10.089 19.4834 8.7258 18.4254 8.26031 16.9706C8.82887 17.0532 9.34091 17.0532 9.9261 16.9044C9.09063 16.7356 8.33969 16.2844 7.80086 15.6274C7.26203 14.9705 6.96853 14.1482 6.97024 13.3004V13.2541C7.45901 13.5286 8.03422 13.6972 8.63603 13.7204C8.13012 13.3851 7.71522 12.9308 7.42812 12.3979C7.14102 11.865 6.9906 11.2698 6.99019 10.6652C6.99019 9.98079 7.16974 9.35588 7.49225 8.81362C8.41959 9.94884 9.57675 10.8773 10.8885 11.5387C12.2003 12.2 13.6374 12.5795 15.1063 12.6524C14.5843 10.156 16.4596 8.13581 18.7139 8.13581C19.7779 8.13581 20.7354 8.57887 21.4104 9.29305C22.245 9.13765 23.0429 8.82685 23.7545 8.41024C23.4785 9.25999 22.9 9.97748 22.1319 10.4305C22.8767 10.3511 23.5949 10.1461 24.2599 9.85845C23.7578 10.5925 23.1294 11.2438 22.4079 11.763Z" fill="white"/>
</svg>
